<?xml version="1.0" encoding="UTF-8"?>
<svg width="129px" height="144px" viewBox="0 0 129 144" version="1.1" xmlns="http://www.w3.org/2000/svg" xmlns:xlink="http://www.w3.org/1999/xlink">
    <!-- Generator: Sketch 51.1 (57501) - http://www.bohemiancoding.com/sketch -->
    <title>Page 1</title>
    <desc>Created with Sketch.</desc>
    <defs>
        <polygon id="path-1" points="0 161 162 161 162 0 0 0"></polygon>
    </defs>
    <g id="v1" stroke="none" stroke-width="1" fill="none" fill-rule="evenodd">
        <g id="Desktop-HD-Copy-9" transform="translate(-395.000000, -3127.000000)">
            <g id="Group-14" transform="translate(365.000000, 3079.000000)">
                <g id="Page-1" transform="translate(16.000000, 42.000000)">
                    <polygon id="Fill-4" fill="#EA8505" points="143 78 20 78 81.5001978 42"></polygon>
                    <mask id="mask-2" fill="white">
                        <use xlink:href="#path-1"></use>
                    </mask>
                    <g id="Clip-7"></g>
                    <polygon id="Fill-6" fill="#EA8505" mask="url(#mask-2)" points="20 150 143 150 143 78 20 78"></polygon>
                    <polygon id="Fill-8" fill="#FFFFFF" mask="url(#mask-2)" points="32 25 108.768798 25 129 45.3120762 129 150 32 150"></polygon>
                    <polygon id="Fill-9" fill="#FEA433" mask="url(#mask-2)" points="110 25 110 45 130 45"></polygon>
                    <polygon id="Fill-10" fill="#C0C0C0" mask="url(#mask-2)" points="69 137 92 137 92 135 69 135"></polygon>
                    <polygon id="Fill-11" fill="#FEA433" mask="url(#mask-2)" points="20 78 81 113.999412 20 150"></polygon>
                    <polygon id="Fill-12" fill="#FEA433" mask="url(#mask-2)" points="143 78 81 113.999412 143 150"></polygon>
                    <polygon id="Fill-13" fill="#F98D04" mask="url(#mask-2)" points="81 114 20 150 143 150"></polygon>
                    <polygon id="Fill-14" fill="#F7FAFA" mask="url(#mask-2)" points="129 64 129 45 110 45"></polygon>
                    <path d="M32.9998057,6 C43.4931752,6 52,14.5056186 52,25.0005828 C52,35.4943814 43.4916211,44 32.9998057,44 C22.5064363,44 14,35.4928273 14,25.0005828 C14,14.5056186 22.5064363,6 32.9998057,6" id="Fill-15" fill="#FEA433" mask="url(#mask-2)"></path>
                    <path d="M27.7877975,25.8480238 C27.7877975,27.1347647 28.0879879,28.1312603 28.6833006,28.8423014 C29.2774437,29.5569356 29.9581353,29.9122566 30.7300535,29.9122566 C31.2403773,29.9122566 31.7795505,29.7533602 32.3503021,29.4411569 C32.9167654,29.1249612 33.4606169,28.6598501 33.9767885,28.0410327 C34.4960789,27.4218161 34.917905,26.6357184 35.2453854,25.6859335 C35.5775442,24.7345517 35.7420641,23.7819722 35.7420641,22.8210087 C35.7420641,21.5502373 35.432907,20.5569356 34.8145927,19.8566739 C34.1962784,19.1516213 33.4422936,18.800692 32.556147,18.800692 C31.9713605,18.800692 31.4185422,18.9551967 30.8976923,19.2562214 C30.3826903,19.5632347 29.8817232,20.0530985 29.394401,20.7282083 C28.9117572,21.4005234 28.5187806,22.2209555 28.2279468,23.1907022 C27.9324347,24.1544604 27.7877975,25.0419642 27.7877975,25.8480238 M34.4489061,29.6487601 C33.8551529,30.3538127 33.1896658,30.9199308 32.449326,31.3471144 C31.7140544,31.774298 30.9737146,31.9850952 30.2322052,31.9850952 C29.4174026,31.9850952 28.6256017,31.7415606 27.8532935,31.2564876 C27.0844942,30.767023 26.4615016,30.0184536 25.9788577,29.0063878 C25.495824,27.9939227 25.2568413,26.8804507 25.2568413,25.6719603 C25.2568413,24.1796123 25.6330539,22.6872643 26.3776821,21.1901255 C27.1223104,19.6989753 28.0482224,18.5763208 29.1554183,17.8229606 C30.2610547,17.0743912 31.3394011,16.6999068 32.377982,16.6999068 C33.1744613,16.6999068 33.934294,16.910704 34.6590395,17.3378876 C35.3810559,17.7650712 36.0036587,18.4186222 36.5245086,19.285765 L37.0075422,17.1039347 L39.4531196,17.1039347 L37.4749816,26.5438939 C37.1977928,27.8585814 37.0621223,28.5835958 37.0621223,28.7225303 C37.0621223,28.976445 37.1564679,29.1964246 37.3439894,29.3788759 C37.5311211,29.5613272 37.7611372,29.651954 38.0231216,29.651954 C38.5088843,29.651954 39.1470813,29.3696935 39.934204,28.7987845 C40.9790227,28.0502151 41.8074703,27.0473318 42.4183773,25.7857428 C43.0257756,24.5289447 43.3302545,23.2346183 43.3302545,21.8947789 C43.3302545,20.3305682 42.9376678,18.8725547 42.1548335,17.5203389 C41.3719992,16.1621346 40.2008667,15.0782061 38.6461142,14.2625649 C37.0956501,13.4517145 35.3763776,13.0444927 33.4972635,13.0444927 C31.3514867,13.0444927 29.3885532,13.5575123 27.6174296,14.5791598 C25.8416278,15.605199 24.4650403,17.0743912 23.490396,18.9879342 C22.5110735,20.9030741 22.0237513,22.9551524 22.0237513,25.1481613 C22.0237513,27.4421772 22.5110735,29.4132103 23.4857177,31.0680477 C24.4650403,32.7288737 25.8751556,33.9513374 27.7207419,34.742226 C29.5667181,35.5343122 31.6087928,35.9275607 33.8535934,35.9275607 C36.2566763,35.9275607 38.2667826,35.5155481 39.8870312,34.6859335 C41.5076697,33.8611099 42.7212967,32.8518387 43.5267427,31.6685002 L46,31.6685002 C45.5325606,32.6510225 44.731403,33.6582975 43.5969171,34.679945 C42.4639906,35.7011933 41.1146931,36.5136406 39.5490246,37.1081045 C37.9849155,37.7021692 36.0968347,38 33.8945285,38 C31.8614206,38 29.9869848,37.7317127 28.2735602,37.1983321 C26.5542877,36.6665484 25.0923213,35.8648805 23.8833726,34.7953245 C22.6755934,33.7205785 21.7664452,32.4869361 21.1528092,31.0959943 C20.38362,29.3273744 20,27.4170252 20,25.3693386 C20,23.089296 20.4596422,20.9122566 21.3734687,18.8446081 C22.4911907,16.3118485 24.0810304,14.3687619 26.1371399,13.021337 C28.194419,11.6723151 30.6859996,11 33.6188991,11 C35.8909898,11 37.9334543,11.4754913 39.742394,12.4252761 C41.5501642,13.375061 42.9786028,14.7895577 44.0187432,16.6703633 C44.909568,18.2876724 45.3543956,20.0483077 45.3543956,21.9478774 C45.3543956,24.6630883 44.4222459,27.0724837 42.5583362,29.1776605 C40.8893554,31.0680477 39.0726185,32.0130417 37.0956501,32.0130417 C36.4621313,32.0130417 35.9564859,31.9116355 35.5681876,31.7152109 C35.1798893,31.5187863 34.8952932,31.2365258 34.7108905,30.8668323 C34.5892549,30.6312824 34.5054355,30.2240607 34.4489061,29.6487601" id="Fill-16" fill="#FFFFFF" mask="url(#mask-2)"></path>
                    <polygon id="Fill-17" fill="#E2E2E2" mask="url(#mask-2)" points="41 61 95 61 95 55 41 55"></polygon>
                    <polygon id="Fill-18" fill="#E2E2E2" mask="url(#mask-2)" points="41 71 122 71 122 65 41 65"></polygon>
                    <polygon id="Fill-19" fill="#E2E2E2" mask="url(#mask-2)" points="41 83 122 83 122 77 41 77"></polygon>
                </g>
            </g>
        </g>
    </g>
</svg>